<?xml version="1.0" encoding="UTF-8" standalone="no"?>
<svg
   xmlns:dc="http://purl.org/dc/elements/1.1/"
   xmlns:cc="http://creativecommons.org/ns#"
   xmlns:rdf="http://www.w3.org/1999/02/22-rdf-syntax-ns#"
   xmlns:svg="http://www.w3.org/2000/svg"
   xmlns="http://www.w3.org/2000/svg"
   xmlns:sodipodi="http://sodipodi.sourceforge.net/DTD/sodipodi-0.dtd"
   xmlns:inkscape="http://www.inkscape.org/namespaces/inkscape"
   version="1.1"
   id="Layer_1"
   x="0px"
   y="0px"
   width="123.2"
   height="24.674"
   viewBox="0 0 123.2 24.673999"
   enable-background="new 0 0 230 24.673"
   xml:space="preserve"
   sodipodi:docname="cake-logo.svg"
   inkscape:version="0.92.5 (2060ec1f9f, 2020-04-08)"><metadata
   id="metadata212"><rdf:RDF><cc:Work
       rdf:about=""><dc:format>image/svg+xml</dc:format><dc:type
         rdf:resource="http://purl.org/dc/dcmitype/StillImage" /><dc:title></dc:title></cc:Work></rdf:RDF></metadata><defs
   id="defs210" /><sodipodi:namedview
   pagecolor="#ffffff"
   bordercolor="#666666"
   borderopacity="1"
   objecttolerance="10"
   gridtolerance="10"
   guidetolerance="10"
   inkscape:pageopacity="0"
   inkscape:pageshadow="2"
   inkscape:window-width="1366"
   inkscape:window-height="707"
   id="namedview208"
   showgrid="false"
   fit-margin-top="0"
   fit-margin-left="0"
   fit-margin-right="0"
   fit-margin-bottom="0"
   inkscape:zoom="4.1391304"
   inkscape:cx="103.86887"
   inkscape:cy="12.3375"
   inkscape:window-x="0"
   inkscape:window-y="30"
   inkscape:window-maximized="1"
   inkscape:current-layer="g205" />
<g
   id="g205">
	
	
	
	
	
	
	
	
	
	
	<g
   id="g189">
		<path
   d="m 15.806,9.873 12.366,3.07 c 2.152,-0.84 3.445,-1.911 3.445,-3.07 V 4.935 C 31.617,2.213 24.537,0 15.806,0 7.076,0 0,2.213 0,4.935 v 4.938 c 0,2.723 7.076,4.933 15.806,4.933 z"
   id="path179"
   inkscape:connector-curvature="0"
   style="fill:#000000" />
		<path
   d="M 28.171,17.879 15.805,14.806 v 4.934 l 12.366,3.074 c 2.153,-0.844 3.446,-1.911 3.446,-3.074 v -4.934 c 10e-4,1.163 -1.293,2.23 -3.446,3.073"
   id="path181"
   inkscape:connector-curvature="0"
   style="fill:#000000" />
		<path
   d="m 0,14.806 v 4.935 c 0,2.724 7.076,4.933 15.806,4.933 V 19.741 C 7.076,19.741 0,17.53 0,14.806"
   id="path183"
   inkscape:connector-curvature="0"
   style="fill:#000000" />
		<path
   d="m 45.185,19.29 c -3.861,0 -6.727,-2.98 -6.727,-6.747 v -0.036 c 0,-3.728 2.81,-6.784 6.838,-6.784 2.473,0 3.955,0.826 5.172,2.024 l -1.836,2.117 c -1.012,-0.918 -2.043,-1.48 -3.354,-1.48 -2.212,0 -3.803,1.836 -3.803,4.084 v 0.039 c 0,2.248 1.554,4.122 3.803,4.122 1.499,0 2.416,-0.599 3.446,-1.537 l 1.836,1.854 c -1.347,1.444 -2.846,2.344 -5.375,2.344"
   id="path185"
   inkscape:connector-curvature="0"
   style="fill:#000000" />
		<path
   d="m 58.506,15.017 c -0.486,-0.227 -1.125,-0.375 -1.817,-0.375 -1.218,0 -1.969,0.487 -1.969,1.387 v 0.037 c 0,0.767 0.638,1.217 1.555,1.217 1.33,0 2.231,-0.728 2.231,-1.761 z m -0.058,4.047 v -1.086 c -0.692,0.768 -1.647,1.274 -3.035,1.274 -1.891,0 -3.447,-1.087 -3.447,-3.073 V 16.14 c 0,-2.193 1.667,-3.205 4.046,-3.205 1.013,0 1.744,0.169 2.457,0.412 V 13.18 c 0,-1.179 -0.731,-1.836 -2.156,-1.836 -1.086,0 -1.854,0.207 -2.772,0.543 L 52.828,9.714 c 1.106,-0.489 2.193,-0.806 3.897,-0.806 3.111,0 4.48,1.611 4.48,4.33 v 5.826 z"
   id="path187"
   inkscape:connector-curvature="0"
   style="fill:#000000" />
	</g>
	<polygon
   points="66.505,16.01 66.505,19.064 63.659,19.064 63.659,5.384 66.505,5.384 66.505,12.676 69.842,9.021 73.251,9.021 69.429,12.973 73.382,19.064 70.123,19.064 67.499,14.961 "
   id="polygon191"
   style="fill:#000000" />
	<g
   id="g197">
		<path
   d="m 78.757,11.12 c -1.18,0 -1.95,0.843 -2.174,2.135 h 4.292 C 80.705,11.98 79.956,11.12 78.757,11.12 m 4.853,3.917 h -6.989 c 0.28,1.292 1.18,1.966 2.455,1.966 0.956,0 1.648,-0.301 2.435,-1.031 l 1.632,1.444 c -0.939,1.162 -2.288,1.874 -4.105,1.874 -3.017,0 -5.249,-2.117 -5.249,-5.19 v -0.039 c 0,-2.867 2.044,-5.228 4.967,-5.228 3.354,0 4.891,2.605 4.891,5.454 v 0.037 c 0,0.281 -0.018,0.45 -0.037,0.713"
   id="path193"
   inkscape:connector-curvature="0"
   style="fill:#000000" />
		<path
   d="m 93.521,10.538 c 0,-1.292 -0.898,-1.985 -2.342,-1.985 H 88.95 v 4.012 h 2.286 c 1.442,0 2.285,-0.865 2.285,-1.987 z m -2.38,4.591 h -2.19 v 3.935 H 86.065 V 5.947 h 5.359 c 3.128,0 5.021,1.855 5.021,4.537 v 0.036 c -10e-4,3.035 -2.362,4.609 -5.304,4.609"
   id="path195"
   inkscape:connector-curvature="0"
   style="fill:#000000" />
	</g>
	<polygon
   points="101.465,13.796 101.465,19.064 98.58,19.064 98.58,5.947 101.465,5.947 101.465,11.138 106.787,11.138 106.787,5.947 109.672,5.947 109.672,19.064 106.787,19.064 106.787,13.796 "
   id="polygon199"
   style="fill:#000000" />
	<g
   id="g203">
		<path
   d="m 120.277,10.538 c 0,-1.292 -0.899,-1.985 -2.342,-1.985 h -2.23 v 4.012 h 2.285 c 1.444,0 2.287,-0.865 2.287,-1.987 z m -2.378,4.591 h -2.194 v 3.935 h -2.886 V 5.947 h 5.359 c 3.128,0 5.022,1.855 5.022,4.537 v 0.036 c 10e-4,3.035 -2.36,4.609 -5.301,4.609"
   id="path201"
   inkscape:connector-curvature="0"
   style="fill:#000000" />
	</g>
</g>
</svg>