<?xml version="1.0" encoding="UTF-8" standalone="no"?>
<!-- Created with Inkscape (http://www.inkscape.org/) -->

<svg
        xmlns:dc="http://purl.org/dc/elements/1.1/"
        xmlns:cc="http://creativecommons.org/ns#"
        xmlns:rdf="http://www.w3.org/1999/02/22-rdf-syntax-ns#"
        xmlns:sodipodi="http://sodipodi.sourceforge.net/DTD/sodipodi-0.dtd"
        xmlns:inkscape="http://www.inkscape.org/namespaces/inkscape"
        xmlns="http://www.w3.org/2000/svg"
        width="44.371964mm"
        height="13.524618mm"
        viewBox="0 0 44.371964 13.524618"
        version="1.1"
        id="svg8"
        inkscape:version="0.92.5 (2060ec1f9f, 2020-04-08)"
        sodipodi:docname="laravel.svg">
    <defs
            id="defs2"/>
    <sodipodi:namedview
            id="base"
            pagecolor="#ffffff"
            bordercolor="#666666"
            borderopacity="1.0"
            inkscape:pageopacity="0.0"
            inkscape:pageshadow="2"
            inkscape:zoom="1.979899"
            inkscape:cx="90.50241"
            inkscape:cy="-13.464295"
            inkscape:document-units="mm"
            inkscape:current-layer="layer1"
            showgrid="false"
            inkscape:window-width="1366"
            inkscape:window-height="707"
            inkscape:window-x="0"
            inkscape:window-y="30"
            inkscape:window-maximized="1"
            inkscape:snap-global="false"
            fit-margin-top="0"
            fit-margin-left="0"
            fit-margin-right="0"
            fit-margin-bottom="0"/>
    <metadata
            id="metadata5">
        <rdf:RDF>
            <cc:Work
                    rdf:about="">
                <dc:format>image/svg+xml</dc:format>
                <dc:type
                        rdf:resource="http://purl.org/dc/dcmitype/StillImage"/>
                <dc:title></dc:title>
            </cc:Work>
        </rdf:RDF>
    </metadata>
    <g
            inkscape:label="Camada 1"
            inkscape:groupmode="layer"
            id="layer1"
            transform="translate(-16.109759,-139.80338)">
        <path
                id="path3715"
                d="m 29.239977,142.86282 a 0.21404792,0.21404792 0 0 1 0.0074,0.0553 v 2.90301 a 0.21166667,0.21166667 0 0 1 -0.106354,0.18362 l -2.436548,1.40282 v 2.78051 c 0,0.0757 -0.04022,0.14552 -0.105833,0.18362 l -5.086085,2.92788 c -0.01164,0.007 -0.02434,0.0109 -0.03704,0.0154 -0.0048,0.002 -0.0093,0.005 -0.01429,0.006 a 0.21298958,0.21298958 0 0 1 -0.108479,0 c -0.0058,-0.002 -0.01111,-0.005 -0.01667,-0.007 -0.01164,-0.004 -0.02381,-0.008 -0.03493,-0.0143 l -5.085026,-2.92784 a 0.21193125,0.21193125 0 0 1 -0.106363,-0.18362 v -8.70902 c 0,-0.019 0.0026,-0.0376 0.0074,-0.0556 0.0016,-0.006 0.0053,-0.0116 0.0074,-0.0177 0.004,-0.0111 0.0077,-0.0225 0.01349,-0.0328 0.004,-0.007 0.0098,-0.0124 0.01455,-0.0188 0.0061,-0.008 0.01164,-0.0172 0.01879,-0.0246 0.0061,-0.006 0.01402,-0.0106 0.0209,-0.0159 0.0077,-0.006 0.01455,-0.0132 0.02328,-0.0182 h 2.64e-4 l 2.542646,-1.46394 a 0.21219583,0.21219583 0 0 1 0.211667,0 l 2.542646,1.46394 h 5.29e-4 c 0.0085,0.005 0.01561,0.0119 0.02328,0.018 0.0069,0.005 0.01455,0.01 0.02064,0.0159 0.0074,0.008 0.0127,0.0164 0.01905,0.0249 0.0045,0.006 0.01058,0.0119 0.01429,0.0188 0.0061,0.0106 0.0095,0.0217 0.01376,0.0328 0.0021,0.006 0.0058,0.0116 0.0074,0.018 a 0.21404792,0.21404792 0 0 1 0.0074,0.0553 v 5.43956 l 2.11878,-1.21999 v -2.78077 c 0,-0.0185 0.0027,-0.0373 0.0074,-0.055 0.0019,-0.006 0.0053,-0.0119 0.0074,-0.018 0.0042,-0.0111 0.0079,-0.0225 0.01376,-0.0328 0.004,-0.007 0.0098,-0.0124 0.01429,-0.0188 0.0064,-0.008 0.01164,-0.0172 0.01905,-0.0246 0.0061,-0.006 0.01376,-0.0106 0.02064,-0.0159 0.0079,-0.006 0.01482,-0.0132 0.02328,-0.0182 h 2.61e-4 l 2.54291,-1.46394 a 0.21193125,0.21193125 0 0 1 0.211667,0 l 2.542646,1.46394 c 0.009,0.005 0.01587,0.0119 0.02381,0.018 0.0066,0.005 0.01429,0.0101 0.02037,0.0159 0.0074,0.008 0.0127,0.0164 0.01905,0.0249 0.0048,0.006 0.01058,0.0119 0.01429,0.0188 0.0061,0.0103 0.0095,0.0217 0.01376,0.0328 0.0024,0.006 0.0058,0.0116 0.0074,0.018 z m -0.416454,2.8358 v -2.41406 l -0.889793,0.51224 -1.229255,0.70776 v 2.41405 l 2.119313,-1.21999 z m -2.542646,4.36695 v -2.41565 l -1.209145,0.69057 -3.452812,1.97061 v 2.4384 z m -9.747249,-8.22008 v 8.22008 l 4.661429,2.68367 v -2.43787 l -2.435225,-1.37822 -7.94e-4,-5.3e-4 -0.0011,-5.3e-4 c -0.0082,-0.005 -0.01508,-0.0116 -0.02275,-0.0175 -0.0066,-0.005 -0.01429,-0.01 -0.02011,-0.0153 l -5.29e-4,-7.9e-4 c -0.0069,-0.007 -0.01164,-0.0148 -0.01746,-0.0222 -0.0053,-0.007 -0.01164,-0.0132 -0.01588,-0.0206 l -2.64e-4,-8e-4 c -0.0048,-0.008 -0.0077,-0.0175 -0.01111,-0.0264 -0.0034,-0.008 -0.0079,-0.0154 -0.01005,-0.0238 v -2.6e-4 c -0.0026,-0.0101 -0.0032,-0.0206 -0.0042,-0.031 -0.0011,-0.008 -0.0032,-0.0159 -0.0032,-0.0238 v -5.3e-4 -5.68351 l -1.228988,-0.70803 -0.889794,-0.5117 z m 2.330979,-1.58591 -2.118519,1.21947 2.11799,1.21946 2.118254,-1.21973 -2.118254,-1.2192 z m 1.101725,7.61048 1.22899,-0.7075 v -5.31707 l -0.889794,0.51224 -1.229254,0.70776 v 5.31706 z m 6.526477,-6.17141 -2.118254,1.21946 2.118254,1.21947 2.117989,-1.21973 z m -0.211932,2.80591 -1.229253,-0.70776 -0.889794,-0.51224 v 2.41406 l 1.22899,0.7075 0.890057,0.51249 z m -4.874153,5.44009 3.107002,-1.77376 1.553104,-0.88636 -2.116667,-1.21867 -2.437077,1.40309 -2.221177,1.27873 z"
                inkscape:connector-curvature="0"
                style="fill:#ff2d20;fill-rule:evenodd;stroke-width:0.26458332"/>
        <path
                id="path3728"
                d="m 31.753262,142.92953 v 6.09758 h 2.206096 v 1.05199 h -3.380846 v -7.14957 z m 6.352646,3.03345 v -0.64347 h 1.113367 v 4.75985 h -1.113102 v -0.64373 c -0.150019,0.23839 -0.36248,0.42572 -0.63844,0.56171 -0.275696,0.13626 -0.553244,0.20426 -0.832379,0.20426 -0.361156,0 -0.691356,-0.0661 -0.990865,-0.19897 a 2.3172208,2.3172208 0 0 1 -0.77126,-0.54663 2.54,2.54 0 0 1 -0.500063,-0.79639 2.5709562,2.5709562 0 0 1 -0.179123,-0.96044 c 0,-0.33337 0.05953,-0.65193 0.178859,-0.95514 a 2.5294167,2.5294167 0 0 1 0.500327,-0.80169 2.3193375,2.3193375 0 0 1 0.77126,-0.54637 c 0.299509,-0.13282 0.629709,-0.19896 0.990865,-0.19896 0.279135,0 0.556683,0.068 0.832379,0.20425 0.275696,0.13627 0.488421,0.32333 0.63844,0.56172 z m -0.102129,2.31854 a 1.6650229,1.6650229 0 0 0 0.102394,-0.58208 c 0,-0.20453 -0.0344,-0.39847 -0.102394,-0.58209 a 1.476375,1.476375 0 0 0 -0.28575,-0.48022 1.3845646,1.3845646 0 0 0 -0.4445,-0.32702 c -0.173567,-0.0815 -0.365919,-0.1225 -0.576792,-0.1225 -0.211402,0 -0.402167,0.041 -0.572294,0.1225 a 1.3996458,1.3996458 0 0 0 -0.439208,0.32702 1.4041437,1.4041437 0 0 0 -0.280458,0.47996 1.7356667,1.7356667 0 0 0 -0.09737,0.58208 c 0,0.20426 0.03228,0.39846 0.0971,0.58208 0.06456,0.18415 0.158221,0.34396 0.280988,0.48022 a 1.3967354,1.3967354 0 0 0 0.439208,0.32703 c 0.169862,0.0817 0.360627,0.1225 0.571765,0.1225 0.211137,0 0.403489,-0.0408 0.577056,-0.1225 a 1.3816542,1.3816542 0 0 0 0.4445,-0.32703 1.4750521,1.4750521 0 0 0 0.28575,-0.47995 z m 2.093912,1.79758 v -4.75959 h 3.023394 v 1.09564 h -1.910292 v 3.66448 h -1.113102 z m 7.057761,-4.11612 v -0.64347 h 1.113366 v 4.75985 h -1.113366 v -0.64373 c -0.149754,0.23839 -0.362479,0.42572 -0.63844,0.56171 -0.275696,0.13626 -0.552979,0.20426 -0.832379,0.20426 -0.360892,0 -0.691092,-0.0661 -0.9906,-0.19897 a 2.3172208,2.3172208 0 0 1 -0.77126,-0.54663 2.54,2.54 0 0 1 -0.500327,-0.79639 2.5709562,2.5709562 0 0 1 -0.178859,-0.96044 c 0,-0.33337 0.05953,-0.65193 0.178859,-0.95514 a 2.5294167,2.5294167 0 0 1 0.500062,-0.80169 2.3193375,2.3193375 0 0 1 0.771525,-0.54637 c 0.299508,-0.13282 0.629708,-0.19896 0.9906,-0.19896 0.279135,0 0.556683,0.068 0.832379,0.20425 0.275961,0.13627 0.488686,0.32333 0.63844,0.56172 z m -0.102129,2.31854 a 1.6650229,1.6650229 0 0 0 0.102129,-0.58208 c 0,-0.20453 -0.0344,-0.39847 -0.102129,-0.58209 a 1.476375,1.476375 0 0 0 -0.28575,-0.48022 1.3845646,1.3845646 0 0 0 -0.4445,-0.32702 c -0.173567,-0.0815 -0.366184,-0.1225 -0.577057,-0.1225 -0.211137,0 -0.401902,0.041 -0.572029,0.1225 a 1.3996458,1.3996458 0 0 0 -0.439208,0.32702 1.4041437,1.4041437 0 0 0 -0.280723,0.47996 1.7356667,1.7356667 0 0 0 -0.0971,0.58208 c 0,0.20426 0.03201,0.39846 0.0971,0.58208 0.06456,0.18415 0.158221,0.34396 0.280723,0.48022 a 1.3967354,1.3967354 0 0 0 0.439208,0.32703 c 0.170127,0.0817 0.360892,0.1225 0.572029,0.1225 0.210873,0 0.40349,-0.0408 0.577057,-0.1225 a 1.3816542,1.3816542 0 0 0 0.4445,-0.32703 1.4750521,1.4750521 0 0 0 0.28575,-0.47995 z m 5.678752,-2.96201 h 1.127654 l -1.826948,4.75985 h -1.399646 l -1.827212,-4.75985 h 1.127654 l 1.399381,3.6449 z m 3.556,-0.1225 c 1.515798,0 2.549525,1.34355 2.355321,2.91597 h -3.693319 c 0,0.41063 0.414602,1.20438 1.399116,1.20438 0.846667,0 1.414198,-0.7448 1.414463,-0.74533 l 0.75221,0.58208 c -0.67257,0.71782 -1.223168,1.04775 -2.085445,1.04775 -1.540669,0 -2.58498,-0.97472 -2.58498,-2.50242 0,-1.38192 1.079236,-2.50243 2.442369,-2.50243 z m -1.335088,2.08862 h 2.668059 c -0.0082,-0.0916 -0.15293,-1.20439 -1.341967,-1.20439 -1.189302,0 -1.317625,1.11284 -1.326092,1.20439 z m 4.415367,2.79347 v -7.14957 h 1.113367 v 7.14957 z"
                inkscape:connector-curvature="0"
                style="fill:#ff2d20;fill-rule:evenodd;stroke-width:0.26458332"/>
    </g>
</svg>
